<svg width="24" height="16" viewBox="0 0 24 16" fill="none" xmlns="http://www.w3.org/2000/svg">
<path d="M22 0H2C0.89543 0 0 0.89543 0 2V14C0 15.1046 0.89543 16 2 16H22C23.1046 16 24 15.1046 24 14V2C24 0.89543 23.1046 0 22 0Z" fill="#016FD0"/>
<path fill-rule="evenodd" clip-rule="evenodd" d="M13.764 13.3939V7.69247L23.9116 7.70157V9.27647L22.7387 10.5299L23.9116 11.7947V13.4031H22.039L21.0438 12.3049L20.0557 13.4072L13.764 13.3939Z" fill="#FFFFFE"/>
<path fill-rule="evenodd" clip-rule="evenodd" d="M14.4418 12.7688V8.31992H18.2141V9.3448H15.6632V10.0405H18.1533V11.0483H15.6632V11.7316H18.2141V12.7688H14.4418Z" fill="#016FD0"/>
<path fill-rule="evenodd" clip-rule="evenodd" d="M18.1953 12.7688L20.2826 10.5418L18.1952 8.32H19.8108L21.0863 9.73003L22.3654 8.32H23.9116V8.35501L21.8687 10.5418L23.9116 12.7057V12.7688H22.3499L21.0518 11.3446L19.767 12.7688H18.1953Z" fill="#016FD0"/>
<path fill-rule="evenodd" clip-rule="evenodd" d="M14.2374 2.63196H16.6834L17.5426 4.58281V2.63196H20.5624L21.0832 4.09353L21.6057 2.63196H23.9116V8.33335H11.7251L14.2374 2.63196Z" fill="#FFFFFE"/>
<path fill-rule="evenodd" clip-rule="evenodd" d="M14.7005 3.25136L12.7264 7.69653H14.0803L14.4528 6.80636H16.4707L16.8429 7.69653H18.2304L16.2647 3.25136H14.7005ZM14.8701 5.80879L15.4621 4.39372L16.0536 5.80879H14.8701Z" fill="#016FD0"/>
<path fill-rule="evenodd" clip-rule="evenodd" d="M18.212 7.69573V3.25065L20.1151 3.25719L21.0944 5.98992L22.08 3.25065H23.9116V7.69573L22.733 7.70616V4.65281L21.6204 7.69573H20.5446L19.409 4.64238V7.69573H18.212Z" fill="#016FD0"/>
</svg>
