<svg width="25" height="12" viewBox="0 0 25 12" fill="none" xmlns="http://www.w3.org/2000/svg">
<path d="M4.54802 2.20761C4.25633 2.55277 3.78953 2.82511 3.32278 2.78617C3.26445 2.31947 3.49294 1.8235 3.76037 1.51718C4.05205 1.16229 4.56261 0.909445 4.97588 0.889999C5.0245 1.3762 4.8349 1.85267 4.54807 2.20761H4.54802ZM4.97102 2.87859C4.29518 2.8397 3.71661 3.26265 3.39571 3.26265C3.06999 3.26265 2.57888 2.89803 2.04407 2.90776C1.34883 2.91748 0.702153 3.31126 0.347217 3.93849C-0.382103 5.1929 0.157619 7.05022 0.862582 8.07123C1.2078 8.57688 1.62107 9.13113 2.16561 9.11169C2.68102 9.09224 2.8852 8.77625 3.50757 8.77625C4.13475 8.77625 4.31467 9.11169 4.85921 9.10196C5.42319 9.09224 5.77812 8.59637 6.12334 8.09068C6.51712 7.51698 6.6776 6.95781 6.68732 6.92864C6.6776 6.91892 5.59825 6.50569 5.58853 5.26096C5.5788 4.2205 6.43938 3.72458 6.47827 3.69541C5.99203 2.97582 5.23359 2.89803 4.97102 2.87859ZM8.87528 1.46856V9.04854H10.0519V6.45708H11.6806C13.1684 6.45708 14.2138 5.43607 14.2138 3.95798C14.2138 2.47995 13.1878 1.46861 11.7195 1.46861H8.87523L8.87528 1.46856ZM10.0519 2.46045H11.4084C12.4294 2.46045 13.0128 3.00499 13.0128 3.9628C13.0128 4.9206 12.4294 5.47005 11.4035 5.47005H10.0519V2.46045ZM16.3628 9.10683C17.1018 9.10683 17.7873 8.73249 18.0985 8.13929H18.1228V9.04849H19.212V5.27554C19.212 4.18161 18.3368 3.4766 16.99 3.4766C15.7404 3.4766 14.8166 4.19133 14.7826 5.17345H15.8426C15.9301 4.7067 16.3627 4.40038 16.9559 4.40038C17.6755 4.40038 18.0791 4.73587 18.0791 5.35337V5.77146L16.6107 5.85897C15.2445 5.94161 14.5055 6.50078 14.5055 7.47322C14.5055 8.45534 15.2688 9.10683 16.3628 9.10683ZM16.6788 8.20736C16.0516 8.20736 15.6529 7.90594 15.6529 7.44401C15.6529 6.96758 16.037 6.69043 16.7712 6.64667L18.0791 6.56403V6.99184C18.0791 7.70171 17.4762 8.20736 16.6788 8.20736H16.6788ZM20.6657 11.11C21.8131 11.11 22.3528 10.6725 22.8244 9.34509L24.8908 3.54952H23.6947L22.3091 8.02743H22.2847L20.8991 3.54952H19.669L21.6624 9.06793L21.5554 9.40343C21.3756 9.97227 21.0838 10.1911 20.5636 10.1911C20.4712 10.1911 20.2913 10.1814 20.2184 10.1716V11.0808C20.2864 11.1003 20.5781 11.11 20.6657 11.11Z" fill="black"/>
</svg>
