<svg width="25" height="11" viewBox="0 0 25 11" fill="none" xmlns="http://www.w3.org/2000/svg">
<path d="M4.54802 1.31761C4.25633 1.66277 3.78953 1.93511 3.32278 1.89617C3.26445 1.42947 3.49294 0.933502 3.76037 0.62718C4.05205 0.272292 4.56261 0.0194459 4.97588 0C5.0245 0.486197 4.8349 0.962671 4.54807 1.31761H4.54802ZM4.97102 1.98859C4.29518 1.9497 3.71661 2.37265 3.39571 2.37265C3.06999 2.37265 2.57888 2.00803 2.04407 2.01776C1.34883 2.02748 0.702153 2.42126 0.347217 3.04849C-0.382103 4.3029 0.157619 6.16023 0.862582 7.18123C1.2078 7.68688 1.62107 8.24113 2.16561 8.22169C2.68102 8.20224 2.8852 7.88625 3.50757 7.88625C4.13475 7.88625 4.31467 8.22169 4.85921 8.21197C5.42319 8.20224 5.77812 7.70637 6.12334 7.20068C6.51712 6.62698 6.6776 6.06781 6.68732 6.03864C6.6776 6.02892 5.59825 5.61569 5.58853 4.37096C5.5788 3.3305 6.43938 2.83458 6.47827 2.80541C5.99203 2.08582 5.23359 2.00803 4.97102 1.98859ZM8.87528 0.578565V8.15854H10.0519V5.56708H11.6806C13.1684 5.56708 14.2138 4.54607 14.2138 3.06798C14.2138 1.58995 13.1878 0.578614 11.7195 0.578614H8.87523L8.87528 0.578565ZM10.0519 1.57045H11.4084C12.4294 1.57045 13.0128 2.11499 13.0128 3.0728C13.0128 4.03061 12.4294 4.58005 11.4035 4.58005H10.0519V1.57045ZM16.3628 8.21683C17.1018 8.21683 17.7873 7.84249 18.0985 7.2493H18.1228V8.15849H19.212V4.38554C19.212 3.29161 18.3368 2.5866 16.99 2.5866C15.7404 2.5866 14.8166 3.30133 14.7826 4.28345H15.8426C15.9301 3.8167 16.3627 3.51038 16.9559 3.51038C17.6755 3.51038 18.0791 3.84587 18.0791 4.46337V4.88146L16.6107 4.96897C15.2445 5.05161 14.5055 5.61078 14.5055 6.58322C14.5055 7.56534 15.2688 8.21683 16.3628 8.21683ZM16.6788 7.31736C16.0516 7.31736 15.6529 7.01594 15.6529 6.55401C15.6529 6.07758 16.037 5.80043 16.7712 5.75667L18.0791 5.67403V6.10184C18.0791 6.81171 17.4762 7.31736 16.6788 7.31736H16.6788ZM20.6657 10.22C21.8131 10.22 22.3528 9.78247 22.8244 8.45509L24.8908 2.65952H23.6947L22.3091 7.13743H22.2847L20.8991 2.65952H19.669L21.6624 8.17793L21.5554 8.51343C21.3756 9.08227 21.0838 9.30108 20.5636 9.30108C20.4712 9.30108 20.2913 9.29136 20.2184 9.28164V10.1908C20.2864 10.2103 20.5781 10.22 20.6657 10.22Z" fill="white"/>
</svg>
