<svg width="24" height="16" viewBox="0 0 24 16" fill="none" xmlns="http://www.w3.org/2000/svg">
<path d="M21.9972 15.7499L21.9994 15.7499C22.9545 15.7581 23.7381 14.9773 23.75 14.0042L23.75 2.0063C23.7462 1.53569 23.5589 1.08617 23.2297 0.756802C22.9014 0.428269 22.4589 0.246149 21.9972 0.250071L2.00064 0.250062C1.54109 0.246149 1.09858 0.428269 0.770279 0.756802C0.441145 1.08617 0.253838 1.53569 0.250008 2.00426L0.25 13.9937C0.253838 14.4643 0.441145 14.9138 0.770279 15.2432C1.09858 15.5717 1.54109 15.7538 2.00277 15.7499H21.9972ZM21.9962 16.2499C21.9958 16.2499 21.9955 16.2499 21.9951 16.2499L21.9972 16.2499H21.9962Z" fill="white" stroke="black" stroke-opacity="0.2" stroke-width="0.5"/>
<path d="M12.6124 15.9999H21.9973C22.524 16.0043 23.031 15.7993 23.4066 15.4299C23.7822 15.0605 23.9956 14.5571 24 14.0303V11.6717C20.4562 13.706 16.6128 15.1668 12.6124 15.9999Z" fill="#F27712"/>
<path d="M23.1724 9.29648H22.32L21.36 8.03027H21.269V9.29648H20.5738V6.15165H21.6C22.4027 6.15165 22.8662 6.48269 22.8662 7.07855C22.8662 7.56682 22.5765 7.88131 22.0552 7.98062L23.1724 9.29648ZM22.1462 7.10338C22.1462 6.79717 21.9145 6.63993 21.4841 6.63993H21.269V7.59165H21.4676C21.9145 7.59165 22.1462 7.42613 22.1462 7.10338ZM18.1407 6.15165H20.1103V6.68131H18.8358V7.38476H20.0607V7.92269H18.8358V8.7751H20.1103V9.30476H18.1407V6.15165ZM15.9062 9.37924L14.4 6.14338H15.1614L16.1131 8.262L17.0731 6.14338H17.8179L16.2952 9.37924H15.9227H15.9062ZM9.60826 9.37096C8.54895 9.37096 7.72137 8.65096 7.72137 7.71579C7.72137 6.80544 8.56551 6.06889 9.62482 6.06889C9.92275 6.06889 10.171 6.12682 10.4772 6.25924V6.98751C10.2453 6.75969 9.93334 6.63192 9.60826 6.63165C8.9462 6.63165 8.44137 7.11165 8.44137 7.71579C8.44137 8.35303 8.93792 8.8082 9.64137 8.8082C9.95585 8.8082 10.1959 8.70889 10.4772 8.46062V9.18889C10.1627 9.32131 9.89792 9.37096 9.60826 9.37096ZM7.5062 8.33648C7.5062 8.94889 7.00137 9.37096 6.27309 9.37096C5.74344 9.37096 5.36275 9.18889 5.03999 8.7751L5.49516 8.38613C5.6524 8.66751 5.91723 8.8082 6.24827 8.8082C6.56275 8.8082 6.7862 8.61786 6.7862 8.36958C6.7862 8.22889 6.71999 8.12131 6.5793 8.03855C6.42504 7.96369 6.2644 7.90276 6.0993 7.85648C5.44551 7.64958 5.22206 7.42613 5.22206 6.98751C5.22206 6.47441 5.70206 6.08544 6.33102 6.08544C6.72827 6.08544 7.08413 6.20958 7.38206 6.44131L7.01792 6.8551C6.8736 6.69688 6.66932 6.60676 6.45516 6.60682C6.15723 6.60682 5.94206 6.75579 5.94206 6.95441C5.94206 7.11993 6.0662 7.21096 6.47999 7.35165C7.27447 7.59993 7.5062 7.83165 7.5062 8.34476V8.33648ZM4.08827 6.15165H4.78344V9.30476H4.08827V6.15165ZM1.85378 9.30476H0.827576V6.15165H1.85378C2.9793 6.15165 3.75723 6.79717 3.75723 7.72407C3.75723 8.19579 3.52551 8.64269 3.11999 8.94062C2.7724 9.18889 2.38344 9.30476 1.84551 9.30476H1.85378ZM2.66482 6.93786C2.43309 6.75579 2.16827 6.68958 1.71309 6.68958H1.52275V8.7751H1.71309C2.15999 8.7751 2.44137 8.69234 2.66482 8.52682C2.90482 8.3282 3.04551 8.03027 3.04551 7.72407C3.04551 7.41786 2.90482 7.1282 2.66482 6.93786Z" fill="black"/>
<path d="M12.4138 6.06889C11.5034 6.06889 10.7586 6.79717 10.7586 7.69924C10.7586 8.65924 11.4703 9.37924 12.4138 9.37924C13.3407 9.37924 14.069 8.65096 14.069 7.72407C14.069 6.79717 13.349 6.06889 12.4138 6.06889Z" fill="#F27712"/>
</svg>
