<svg width="77" height="31" viewBox="0 0 77 31" fill="none" xmlns="http://www.w3.org/2000/svg">
<path fill-rule="evenodd" clip-rule="evenodd" d="M14.0853 6.26596L14.0853 6.28331H14.0853V11.6293V11.9071V29.3684C14.0853 30.2695 13.3568 31 12.4581 31H2.27921C1.38052 31 0.651978 30.2695 0.651978 29.3684V15.2049C0.651978 12.3291 2.9771 9.99776 5.84528 9.99776H7.35034V9.99772C9.45442 9.98837 11.1571 8.36781 11.1571 6.3701C11.1571 4.3666 9.44454 2.74244 7.33204 2.74244C5.64902 2.74244 4.21987 3.77334 3.70833 5.20565L3.70834 5.20717L3.70032 5.22834C3.69472 5.24437 3.68923 5.26046 3.68386 5.2766H3.68172C3.40646 5.98174 2.98357 6.66517 2.20063 6.66517C1.39202 6.66517 0.73651 6.04349 0.73651 5.2766H0.73523C1.2437 2.2861 4.01999 0 7.36864 0C11.0782 0 14.0853 2.80536 14.0853 6.26596ZM4.62262 19V28H2.65198V19H4.62262ZM8.14635 24.0977V28H6.20756V21.25H8.05532V22.4409H8.13724C8.29198 22.0483 8.5514 21.7378 8.91549 21.5093C9.27958 21.2778 9.72104 21.1621 10.2399 21.1621C10.7253 21.1621 11.1486 21.2646 11.5096 21.4697C11.8707 21.6748 12.1514 21.9678 12.3516 22.3486C12.5519 22.7266 12.652 23.1777 12.652 23.7021V28H10.7132V24.0361C10.7162 23.623 10.607 23.3008 10.3855 23.0693C10.164 22.835 9.85909 22.7178 9.47073 22.7178C9.2098 22.7178 8.97921 22.772 8.77895 22.8804C8.58174 22.9888 8.427 23.147 8.31474 23.355C8.20551 23.5601 8.14938 23.8076 8.14635 24.0977ZM17.652 20.5462V19H24.9369V20.5462H22.2213V27.8701H20.3676V20.5462H17.652ZM27.947 24.0241V27.8701H26.1019V19H27.895V22.3912H27.973C28.1231 21.9986 28.3656 21.691 28.7006 21.4687C29.0355 21.2435 29.4556 21.1309 29.9609 21.1309C30.4229 21.1309 30.8257 21.232 31.1693 21.4341C31.5158 21.6333 31.7843 21.9206 31.9749 22.296C32.1683 22.6684 32.2636 23.1145 32.2607 23.6343V27.8701H30.4157V23.9634C30.4186 23.5534 30.3146 23.2344 30.1039 23.0063C29.896 22.7782 29.6043 22.6641 29.229 22.6641C28.9778 22.6641 28.7554 22.7175 28.562 22.8244C28.3714 22.9312 28.2213 23.0871 28.1116 23.2921C28.0047 23.4942 27.9499 23.7382 27.947 24.0241ZM34.9774 27.5842C35.4712 27.8614 36.0602 28 36.7445 28C37.2931 28 37.7767 27.9163 38.1954 27.7488C38.617 27.5784 38.9606 27.3417 39.2262 27.0385C39.4947 26.7324 39.6723 26.3744 39.7589 25.9644L38.0525 25.8518C37.989 26.0192 37.8966 26.1607 37.7753 26.2762C37.654 26.3917 37.5082 26.4783 37.3379 26.5361C37.1675 26.5938 36.9798 26.6227 36.7748 26.6227C36.4659 26.6227 36.1988 26.5577 35.9736 26.4278C35.7483 26.2979 35.5737 26.1131 35.4495 25.8734C35.3282 25.6338 35.2676 25.3494 35.2676 25.0202V25.0159H39.7979V24.5091C39.7979 23.9432 39.7185 23.4495 39.5597 23.0279C39.4009 22.6035 39.1786 22.2512 38.8927 21.9711C38.6097 21.691 38.2777 21.4817 37.8966 21.3431C37.5183 21.2016 37.1097 21.1309 36.6709 21.1309C36.0183 21.1309 35.4495 21.2753 34.9644 21.564C34.4822 21.8527 34.1083 22.2555 33.8427 22.7724C33.577 23.2892 33.4442 23.8898 33.4442 24.5741C33.4442 25.2757 33.577 25.8835 33.8427 26.3975C34.1083 26.9086 34.4866 27.3041 34.9774 27.5842ZM35.2693 23.8725C35.2805 23.6336 35.342 23.4156 35.4538 23.2185C35.5751 23.0019 35.7426 22.8301 35.9562 22.7031C36.1728 22.5731 36.4211 22.5082 36.7012 22.5082C36.9697 22.5082 37.205 22.5674 37.4072 22.6858C37.6122 22.8013 37.7724 22.9615 37.8879 23.1665C38.0034 23.3715 38.0611 23.6068 38.0611 23.8725H35.2693ZM43.8594 27.8701V19H47.3589C48.0288 19 48.6005 19.1198 49.074 19.3595C49.5504 19.5962 49.9128 19.9326 50.1611 20.3686C50.4123 20.8017 50.5379 21.3114 50.5379 21.8975C50.5379 22.4865 50.4109 22.9933 50.1568 23.4177C49.9027 23.8393 49.5346 24.1627 49.0524 24.3879C49.0259 24.4003 48.9992 24.4124 48.9721 24.4241L50.8541 27.8701H48.7838L47.1037 24.7257H45.7347V27.8701H43.8594ZM47.0081 23.2185H45.7347V20.5332H46.9994C47.3603 20.5332 47.6592 20.5866 47.896 20.6935C48.1356 20.7974 48.3132 20.9504 48.4287 21.1525C48.5471 21.3547 48.6063 21.603 48.6063 21.8975C48.6063 22.1891 48.5471 22.4331 48.4287 22.6295C48.3132 22.8258 48.1371 22.9731 47.9003 23.0712C47.6635 23.1694 47.3661 23.2185 47.0081 23.2185ZM52.9817 27.5712C53.4726 27.8571 54.0544 28 54.7272 28C55.3999 28 55.9803 27.8571 56.4683 27.5712C56.9591 27.2825 57.3374 26.8811 57.603 26.3672C57.8687 25.8503 58.0015 25.2512 58.0015 24.5698C58.0015 23.8826 57.8687 23.282 57.603 22.768C57.3374 22.2512 56.9591 21.8499 56.4683 21.564C55.9803 21.2753 55.3999 21.1309 54.7272 21.1309C54.0544 21.1309 53.4726 21.2753 52.9817 21.564C52.4938 21.8499 52.117 22.2512 51.8513 22.768C51.5857 23.282 51.4529 23.8826 51.4529 24.5698C51.4529 25.2512 51.5857 25.8503 51.8513 26.3672C52.117 26.8811 52.4938 27.2825 52.9817 27.5712ZM55.5024 26.3109C55.2974 26.4841 55.0419 26.5707 54.7358 26.5707C54.4269 26.5707 54.167 26.4841 53.9562 26.3109C53.7483 26.1347 53.591 25.8951 53.4841 25.5919C53.3802 25.2887 53.3282 24.9437 53.3282 24.5568C53.3282 24.1699 53.3802 23.8248 53.4841 23.5217C53.591 23.2185 53.7483 22.9788 53.9562 22.8027C54.167 22.6266 54.4269 22.5385 54.7358 22.5385C55.0419 22.5385 55.2974 22.6266 55.5024 22.8027C55.7074 22.9788 55.8619 23.2185 55.9659 23.5217C56.0727 23.8248 56.1261 24.1699 56.1261 24.5568C56.1261 24.9437 56.0727 25.2887 55.9659 25.5919C55.8619 25.8951 55.7074 26.1347 55.5024 26.3109ZM62.207 28C61.5342 28 60.9524 27.8571 60.4615 27.5712C59.9736 27.2825 59.5968 26.8811 59.3311 26.3672C59.0655 25.8503 58.9327 25.2512 58.9327 24.5698C58.9327 23.8826 59.0655 23.282 59.3311 22.768C59.5968 22.2512 59.9736 21.8499 60.4615 21.564C60.9524 21.2753 61.5342 21.1309 62.207 21.1309C62.8797 21.1309 63.4601 21.2753 63.9481 21.564C64.4389 21.8499 64.8172 22.2512 65.0828 22.768C65.3484 23.282 65.4813 23.8826 65.4813 24.5698C65.4813 25.2512 65.3484 25.8503 65.0828 26.3672C64.8172 26.8811 64.4389 27.2825 63.9481 27.5712C63.4601 27.8571 62.8797 28 62.207 28ZM62.2156 26.5707C62.5217 26.5707 62.7772 26.4841 62.9822 26.3109C63.1872 26.1347 63.3417 25.8951 63.4456 25.5919C63.5525 25.2887 63.6059 24.9437 63.6059 24.5568C63.6059 24.1699 63.5525 23.8248 63.4456 23.5217C63.3417 23.2185 63.1872 22.9788 62.9822 22.8027C62.7772 22.6266 62.5217 22.5385 62.2156 22.5385C61.9067 22.5385 61.6468 22.6266 61.436 22.8027C61.2281 22.9788 61.0708 23.2185 60.9639 23.5217C60.86 23.8248 60.808 24.1699 60.808 24.5568C60.808 24.9437 60.86 25.2887 60.9639 25.5919C61.0708 25.8951 61.2281 26.1347 61.436 26.3109C61.6468 26.4841 61.9067 26.5707 62.2156 26.5707ZM66.681 21.2175V27.8701H68.526V23.8768C68.526 23.6314 68.5737 23.4177 68.6689 23.2358C68.7642 23.051 68.8927 22.9081 69.0544 22.807C69.219 22.7031 69.4038 22.6511 69.6088 22.6511C69.912 22.6511 70.1559 22.7478 70.3407 22.9413C70.5284 23.1347 70.6223 23.3946 70.6223 23.7209V27.8701H72.411V23.8075C72.411 23.461 72.5048 23.1824 72.6925 22.9716C72.8802 22.7579 73.1415 22.6511 73.4764 22.6511C73.771 22.6511 74.0164 22.7435 74.2127 22.9283C74.4091 23.1131 74.5072 23.3903 74.5072 23.7599V27.8701H76.348V23.3961C76.348 22.6742 76.1531 22.1169 75.7633 21.7243C75.3764 21.3287 74.8725 21.1309 74.2517 21.1309C73.7637 21.1309 73.3407 21.2464 72.9827 21.4774C72.6276 21.7055 72.3821 22.0101 72.2464 22.3912H72.1771C72.0703 22.0043 71.8566 21.6983 71.5361 21.4731C71.2156 21.2449 70.8273 21.1309 70.3711 21.1309C69.9206 21.1309 69.5337 21.2435 69.2103 21.4687C68.8869 21.6939 68.6559 22.0014 68.5173 22.3912H68.4394V21.2175H66.681Z" fill="black"/>
</svg>
