<svg width="87" height="31" viewBox="0 0 87 31" fill="none" xmlns="http://www.w3.org/2000/svg">
<path fill-rule="evenodd" clip-rule="evenodd" d="M14.1833 6.26596C14.1833 6.27174 14.1833 6.27753 14.1833 6.28331H14.1833V11.6293V11.9071V29.3684C14.1833 30.2695 13.4548 31 12.5561 31H2.37723C1.47854 31 0.75 30.2695 0.75 29.3684V15.2049C0.75 12.3291 3.07512 9.99776 5.9433 9.99776H7.44837V9.99772C9.55245 9.98837 11.2551 8.36781 11.2551 6.3701C11.2551 4.3666 9.54257 2.74244 7.43006 2.74244C5.74704 2.74244 4.31789 3.77334 3.80636 5.20565C3.80636 5.20615 3.80636 5.20666 3.80636 5.20717C3.8037 5.21422 3.80103 5.22128 3.79834 5.22834C3.79274 5.24437 3.78725 5.26046 3.78188 5.2766H3.77974C3.50448 5.98174 3.08159 6.66517 2.29866 6.66517C1.49004 6.66517 0.834533 6.04349 0.834533 5.2766H0.833253C1.34172 2.2861 4.11802 0 7.46667 0C11.1762 0 14.1833 2.80536 14.1833 6.26596Z" fill="black"/>
<path d="M4.28764 15.8182V26H2.13494V15.8182H4.28764ZM8.1369 21.5852V26H6.019V18.3636H8.03746V19.7109H8.12695C8.29599 19.2668 8.57937 18.9155 8.9771 18.657C9.37482 18.3951 9.85707 18.2642 10.4238 18.2642C10.9541 18.2642 11.4165 18.3802 11.8109 18.6122C12.2053 18.8442 12.5119 19.1757 12.7306 19.6065C12.9494 20.0341 13.0588 20.5445 13.0588 21.1378V26H10.9409V21.5156C10.9442 21.0483 10.8249 20.6837 10.5829 20.4219C10.341 20.1567 10.0079 20.0241 9.58363 20.0241C9.29859 20.0241 9.0467 20.0855 8.82795 20.2081C8.61251 20.3307 8.44348 20.5097 8.32085 20.745C8.20153 20.977 8.14021 21.2571 8.1369 21.5852Z" fill="white"/>
<path d="M17.6202 17.593V15.8182H25.9824V17.593H22.8652V26H20.7374V17.593H17.6202ZM29.4377 21.5852V26H27.3198V15.8182H29.378V19.7109H29.4675C29.6399 19.2602 29.9183 18.9072 30.3027 18.652C30.6872 18.3935 31.1694 18.2642 31.7495 18.2642C32.2798 18.2642 32.7421 18.3802 33.1365 18.6122C33.5343 18.8409 33.8425 19.1707 34.0613 19.6016C34.2833 20.0291 34.3927 20.5412 34.3894 21.1378V26H32.2715V21.5156C32.2748 21.045 32.1555 20.6787 31.9135 20.4169C31.6749 20.1551 31.3401 20.0241 30.9093 20.0241C30.6209 20.0241 30.3657 20.0855 30.1436 20.2081C29.9249 20.3307 29.7525 20.5097 29.6266 20.745C29.504 20.977 29.441 21.2571 29.4377 21.5852ZM39.5362 26.1491C38.7507 26.1491 38.0746 25.9901 37.5078 25.6719C36.9444 25.3504 36.5102 24.8963 36.2053 24.3097C35.9003 23.7197 35.7479 23.022 35.7479 22.2166C35.7479 21.4311 35.9003 20.7417 36.2053 20.1484C36.5102 19.5552 36.9394 19.0928 37.4929 18.7614C38.0497 18.4299 38.7027 18.2642 39.4517 18.2642C39.9555 18.2642 40.4245 18.3454 40.8587 18.5078C41.2962 18.6669 41.6773 18.9072 42.0021 19.2287C42.3303 19.5502 42.5855 19.9545 42.7678 20.4418C42.95 20.9257 43.0412 21.4924 43.0412 22.142V22.7237H36.593V21.4112H41.0476C41.0476 21.1063 40.9813 20.8362 40.8487 20.6009C40.7161 20.3655 40.5322 20.1816 40.2969 20.049C40.0649 19.9131 39.7947 19.8452 39.4865 19.8452C39.165 19.8452 38.88 19.9197 38.6314 20.0689C38.3861 20.2147 38.1939 20.4119 38.0547 20.6605C37.9155 20.9058 37.8442 21.1792 37.8409 21.4808V22.7287C37.8409 23.1065 37.9105 23.433 38.0497 23.7081C38.1922 23.9832 38.3928 24.1953 38.6513 24.3445C38.9098 24.4936 39.2164 24.5682 39.571 24.5682C39.8063 24.5682 40.0218 24.535 40.2173 24.4688C40.4129 24.4025 40.5803 24.303 40.7195 24.1705C40.8587 24.0379 40.9647 23.8755 41.0376 23.6832L42.9964 23.8125C42.897 24.2831 42.6932 24.6941 42.3849 25.0455C42.08 25.3935 41.6856 25.6652 41.2017 25.8608C40.7211 26.053 40.166 26.1491 39.5362 26.1491ZM47.7033 26V15.8182H51.7203C52.4893 15.8182 53.1455 15.9557 53.6891 16.2308C54.236 16.5026 54.6519 16.8887 54.937 17.3892C55.2253 17.8864 55.3695 18.4714 55.3695 19.1442C55.3695 19.8203 55.2237 20.402 54.932 20.8892C54.6403 21.3731 54.2177 21.7443 53.6642 22.0028C53.1141 22.2614 52.4479 22.3906 51.6657 22.3906H48.976V20.6605H51.3176C51.7286 20.6605 52.07 20.6042 52.3418 20.4915C52.6136 20.3788 52.8158 20.2098 52.9483 19.9844C53.0842 19.759 53.1522 19.4789 53.1522 19.1442C53.1522 18.8061 53.0842 18.5211 52.9483 18.2891C52.8158 18.0571 52.6119 17.8814 52.3368 17.7621C52.065 17.6394 51.722 17.5781 51.3077 17.5781H49.856V26H47.7033ZM53.2019 21.3665L55.7324 26H53.356L50.8801 21.3665H53.2019ZM60.1783 26.1491C59.406 26.1491 58.7382 25.9851 58.1747 25.657C57.6146 25.3255 57.1821 24.8648 56.8771 24.2749C56.5722 23.6816 56.4197 22.9938 56.4197 22.2116C56.4197 21.4228 56.5722 20.7334 56.8771 20.1435C57.1821 19.5502 57.6146 19.0895 58.1747 18.7614C58.7382 18.4299 59.406 18.2642 60.1783 18.2642C60.9505 18.2642 61.6167 18.4299 62.1768 18.7614C62.7403 19.0895 63.1745 19.5502 63.4794 20.1435C63.7843 20.7334 63.9368 21.4228 63.9368 22.2116C63.9368 22.9938 63.7843 23.6816 63.4794 24.2749C63.1745 24.8648 62.7403 25.3255 62.1768 25.657C61.6167 25.9851 60.9505 26.1491 60.1783 26.1491ZM60.1882 24.5085C60.5395 24.5085 60.8329 24.4091 61.0682 24.2102C61.3035 24.008 61.4808 23.733 61.6001 23.3849C61.7228 23.0369 61.7841 22.6409 61.7841 22.1967C61.7841 21.7526 61.7228 21.3565 61.6001 21.0085C61.4808 20.6605 61.3035 20.3854 61.0682 20.1832C60.8329 19.9811 60.5395 19.88 60.1882 19.88C59.8336 19.88 59.5353 19.9811 59.2933 20.1832C59.0547 20.3854 58.8741 20.6605 58.7514 21.0085C58.6321 21.3565 58.5724 21.7526 58.5724 22.1967C58.5724 22.6409 58.6321 23.0369 58.7514 23.3849C58.8741 23.733 59.0547 24.008 59.2933 24.2102C59.5353 24.4091 59.8336 24.5085 60.1882 24.5085ZM68.7642 26.1491C67.992 26.1491 67.3241 25.9851 66.7607 25.657C66.2005 25.3255 65.768 24.8648 65.4631 24.2749C65.1581 23.6816 65.0057 22.9938 65.0057 22.2116C65.0057 21.4228 65.1581 20.7334 65.4631 20.1435C65.768 19.5502 66.2005 19.0895 66.7607 18.7614C67.3241 18.4299 67.992 18.2642 68.7642 18.2642C69.5365 18.2642 70.2027 18.4299 70.7628 18.7614C71.3262 19.0895 71.7604 19.5502 72.0653 20.1435C72.3703 20.7334 72.5227 21.4228 72.5227 22.2116C72.5227 22.9938 72.3703 23.6816 72.0653 24.2749C71.7604 24.8648 71.3262 25.3255 70.7628 25.657C70.2027 25.9851 69.5365 26.1491 68.7642 26.1491ZM68.7741 24.5085C69.1255 24.5085 69.4188 24.4091 69.6541 24.2102C69.8894 24.008 70.0668 23.733 70.1861 23.3849C70.3087 23.0369 70.37 22.6409 70.37 22.1967C70.37 21.7526 70.3087 21.3565 70.1861 21.0085C70.0668 20.6605 69.8894 20.3854 69.6541 20.1832C69.4188 19.9811 69.1255 19.88 68.7741 19.88C68.4195 19.88 68.1212 19.9811 67.8793 20.1832C67.6406 20.3854 67.46 20.6605 67.3374 21.0085C67.218 21.3565 67.1584 21.7526 67.1584 22.1967C67.1584 22.6409 67.218 23.0369 67.3374 23.3849C67.46 23.733 67.6406 24.008 67.8793 24.2102C68.1212 24.4091 68.4195 24.5085 68.7741 24.5085ZM73.8999 26V18.3636H75.9183V19.7109H76.0078C76.1669 19.2635 76.4321 18.9105 76.8033 18.652C77.1745 18.3935 77.6186 18.2642 78.1357 18.2642C78.6593 18.2642 79.1051 18.3951 79.473 18.657C79.8409 18.9155 80.0862 19.2668 80.2088 19.7109H80.2884C80.4441 19.2734 80.7259 18.9238 81.1335 18.6619C81.5445 18.3968 82.0301 18.2642 82.5902 18.2642C83.3028 18.2642 83.8812 18.4912 84.3253 18.9453C84.7727 19.3961 84.9964 20.0357 84.9964 20.8643V26H82.8835V21.282C82.8835 20.8577 82.7708 20.5395 82.5455 20.3274C82.3201 20.1153 82.0384 20.0092 81.7003 20.0092C81.3158 20.0092 81.0159 20.1319 80.8004 20.3771C80.585 20.6191 80.4773 20.9389 80.4773 21.3366V26H78.424V21.2372C78.424 20.8627 78.3163 20.5644 78.1009 20.3423C77.8887 20.1203 77.6087 20.0092 77.2607 20.0092C77.0253 20.0092 76.8132 20.0689 76.6243 20.1882C76.4387 20.3042 76.2912 20.4683 76.1818 20.6804C76.0724 20.8892 76.0178 21.1345 76.0178 21.4162V26H73.8999Z" fill="black"/>
</svg>
