<svg width="19" height="19" viewBox="0 0 19 19" fill="none" xmlns="http://www.w3.org/2000/svg">
<path d="M3.16023 11.3745C2.14619 11.1567 1.25637 10.5536 0.678475 9.69239C0.100581 8.83115 -0.120199 7.77912 0.062707 6.75822C0.245613 5.73732 0.817904 4.82737 1.65886 4.22033C2.49981 3.6133 3.54367 3.35663 4.57023 3.50448C4.82286 2.93112 5.17878 2.4091 5.62023 1.96448C6.08469 1.49885 6.63644 1.12942 7.24389 0.877357C7.85135 0.625293 8.50256 0.495544 9.16023 0.495544C9.8179 0.495544 10.4691 0.625293 11.0766 0.877357C11.684 1.12942 12.2358 1.49885 12.7002 1.96448C13.1417 2.4091 13.4976 2.93112 13.7502 3.50448C14.7768 3.35663 15.8207 3.6133 16.6616 4.22033C17.5026 4.82737 18.0748 5.73732 18.2578 6.75822C18.4407 7.77912 18.2199 8.83115 17.642 9.69239C17.0641 10.5536 16.1743 11.1567 15.1602 11.3745V18.5045H3.16023V11.3745Z" fill="#FF5C4D"/>
</svg>
