<svg width="11" height="11" viewBox="0 0 11 11" fill="none" xmlns="http://www.w3.org/2000/svg">
<path fill-rule="evenodd" clip-rule="evenodd" d="M6.90216 1.4021C6.90216 0.849815 6.45445 0.4021 5.90216 0.4021C5.34988 0.4021 4.90216 0.849815 4.90216 1.4021V4.50002H1.8042C1.25191 4.50002 0.804199 4.94774 0.804199 5.50002C0.804199 6.05231 1.25191 6.50002 1.8042 6.50002H4.90216V9.59791C4.90216 10.1502 5.34988 10.5979 5.90216 10.5979C6.45445 10.5979 6.90216 10.1502 6.90216 9.59791V6.50002H10C10.5523 6.50002 11 6.05231 11 5.50002C11 4.94774 10.5523 4.50002 10 4.50002H6.90216V1.4021Z" fill="black"/>
</svg>
