<svg width="46" height="10" viewBox="0 0 46 10" fill="none" xmlns="http://www.w3.org/2000/svg">
<path fill-rule="evenodd" clip-rule="evenodd" d="M42.5612 9.03H41.4962L42.3208 6.99315L40.6795 2.85169H41.805L42.8366 5.67021L43.8761 2.85169H45.0017L42.5612 9.03ZM38.4708 7.25103C38.1014 7.25103 37.7233 7.11408 37.3795 6.84745V7.14831H36.2802V0.970001H37.3795V3.14454C37.7233 2.88665 38.1014 2.74897 38.4708 2.74897C39.6225 2.74897 40.4129 3.67707 40.4129 5C40.4129 6.32294 39.6225 7.25103 38.4708 7.25103ZM38.2391 3.69382C37.9382 3.69382 37.6374 3.82276 37.3795 4.08065V5.91935C37.6374 6.17724 37.9382 6.30618 38.2391 6.30618C38.8576 6.30618 39.2874 5.77366 39.2874 5C39.2874 4.22708 38.8576 3.69382 38.2391 3.69382ZM31.8284 6.84745C31.4933 7.11408 31.1152 7.25103 30.7371 7.25103C29.5941 7.25103 28.7957 6.32294 28.7957 5C28.7957 3.67707 29.5941 2.74897 30.7371 2.74897C31.1152 2.74897 31.4933 2.88665 31.8284 3.14454V0.970001H32.9372V7.14831H31.8284V6.84745ZM31.8284 4.08065C31.5793 3.82276 31.2784 3.69382 30.9775 3.69382C30.3503 3.69382 29.9212 4.22708 29.9212 5C29.9212 5.77366 30.3503 6.30618 30.9775 6.30618C31.2784 6.30618 31.5793 6.17724 31.8284 5.91935V4.08065ZM25.2807 5.30087C25.3492 5.95359 25.865 6.40089 26.5869 6.40089C26.9818 6.40089 27.4203 6.25446 27.8669 5.99657V6.91593C27.3773 7.13957 26.8878 7.25103 26.4063 7.25103C25.1088 7.25103 24.1982 6.30618 24.1982 4.96576C24.1982 3.66832 25.0921 2.74897 26.3203 2.74897C27.4458 2.74897 28.2107 3.63408 28.2107 4.89728C28.2107 5.01748 28.2107 5.15444 28.1932 5.30087H25.2807ZM26.2773 3.59985C25.7448 3.59985 25.3325 3.99469 25.2807 4.58768H27.1537C27.1194 4.00343 26.7669 3.59985 26.2773 3.59985ZM22.385 4.27807V7.14831H21.285V2.85169H22.385V3.2815C22.6939 2.93765 23.072 2.74897 23.4413 2.74897C23.5622 2.74897 23.6824 2.75771 23.8026 2.79195V3.77177C23.6824 3.7368 23.5448 3.72005 23.4158 3.72005C23.0552 3.72005 22.6684 3.91747 22.385 4.27807ZM17.4779 5.30087C17.5471 5.95359 18.0621 6.40089 18.7841 6.40089C19.1796 6.40089 19.6175 6.25446 20.0648 5.99657V6.91593C19.5745 7.13957 19.0849 7.25103 18.6034 7.25103C17.306 7.25103 16.3954 6.30618 16.3954 4.96576C16.3954 3.66832 17.2892 2.74897 18.5175 2.74897C19.6437 2.74897 20.4079 3.63408 20.4079 4.89728C20.4079 5.01748 20.4079 5.15444 20.3911 5.30087H17.4779ZM18.4745 3.59985C17.9419 3.59985 17.5296 3.99469 17.4779 4.58768H19.3516C19.3166 4.00343 18.9647 3.59985 18.4745 3.59985ZM13.6366 7.14831L12.7602 4.22707L11.8926 7.14831H10.904L9.42664 2.85169H10.5259L11.3943 5.77366L12.2619 2.85169H13.2585L14.1261 5.77366L14.9945 2.85169H16.0938L14.6244 7.14831H13.6366ZM6.917 7.25103C5.61956 7.25103 4.70021 6.31492 4.70021 5C4.70021 3.67707 5.61956 2.74897 6.917 2.74897C8.21444 2.74897 9.12505 3.67707 9.12505 5C9.12505 6.31492 8.21444 7.25103 6.917 7.25103ZM6.917 3.66832C6.27229 3.66832 5.82572 4.20959 5.82572 5C5.82572 5.79041 6.27229 6.33168 6.917 6.33168C7.55297 6.33168 7.99953 5.79041 7.99953 5C7.99953 4.20959 7.55297 3.66832 6.917 3.66832ZM2.08785 5.02623H1.09929V7.14831H0V1.23663H2.08785C3.29058 1.23663 4.14947 2.0183 4.14947 3.1358C4.14947 4.25257 3.29058 5.02623 2.08785 5.02623ZM1.93268 2.13048H1.09929V4.13237H1.93268C2.56865 4.13237 3.01521 3.72879 3.01521 3.1358C3.01521 2.53407 2.56865 2.13048 1.93268 2.13048Z" fill="#32364E"/>
</svg>
