<svg width="35" height="16" viewBox="0 0 35 16" fill="none" xmlns="http://www.w3.org/2000/svg">
<path fill-rule="evenodd" clip-rule="evenodd" d="M34.5327 9.08673H29.894C29.9996 10.1975 30.8135 10.5244 31.7367 10.5244C32.6779 10.5244 33.4188 10.3267 34.065 10.0004V11.9096C33.4207 12.266 32.5711 12.5238 31.4379 12.5238C29.1301 12.5238 27.5126 11.0785 27.5126 8.22042C27.5126 5.80702 28.8844 3.89012 31.1391 3.89012C33.39 3.89012 34.5647 5.80638 34.5647 8.23321C34.5647 8.46227 34.5436 8.95877 34.5327 9.08673ZM31.1238 5.82237C30.5313 5.82237 29.8729 6.26961 29.8729 7.33747H32.3228C32.3228 6.27089 31.706 5.82237 31.1238 5.82237ZM23.7543 12.5238C22.9251 12.5238 22.4184 12.1739 22.078 11.9243L22.0729 14.6058L19.7036 15.11L19.7024 4.04815H21.7894L21.9123 4.63359C22.2405 4.32711 22.84 3.89012 23.769 3.89012C25.4332 3.89012 27.0008 5.38921 27.0008 8.14812C27.0008 11.1598 25.4499 12.5238 23.7543 12.5238ZM23.2028 5.98937C22.6583 5.98937 22.3179 6.18835 22.071 6.45899L22.085 9.98056C22.3147 10.2295 22.6468 10.4304 23.2028 10.4304C24.0787 10.4304 24.6661 9.47639 24.6661 8.20058C24.6661 6.96061 24.0698 5.98937 23.2028 5.98937ZM16.3554 4.04815H18.7343V12.3543H16.3554V4.04815ZM16.3554 1.3961L18.7343 0.889999V2.82034L16.3554 3.32579V1.3961ZM13.8979 6.72324V12.3543H11.5293V4.04815H13.578L13.7271 4.74875C14.2812 3.72888 15.3893 3.93554 15.7048 4.04879V6.22674C15.4034 6.12949 14.4577 5.98745 13.8979 6.72324ZM8.89643 9.43992C8.89643 10.8366 10.3917 10.4022 10.6956 10.2806V12.2097C10.3795 12.3831 9.80689 12.5238 9.03207 12.5238C7.62574 12.5238 6.57068 11.488 6.57068 10.0849L6.58092 2.48187L8.8945 1.99049L8.89643 4.04815H10.6962V6.0687H8.89643V9.43992ZM6.02107 9.84428C6.02107 11.55 4.66338 12.5238 2.69273 12.5238C1.87568 12.5238 0.982491 12.3652 0.101459 11.9858V9.72336C0.896755 10.1559 1.91023 10.4803 2.69529 10.4803C3.22378 10.4803 3.60447 10.3382 3.60447 9.90059C3.60447 8.76938 0.00164795 9.1955 0.00164795 6.5716C0.00164795 4.89399 1.28321 3.89012 3.20522 3.89012C3.99028 3.89012 4.77534 4.01104 5.5604 4.32391V6.55561C4.83933 6.1666 3.92438 5.94586 3.20331 5.94586C2.70681 5.94586 2.39841 6.08918 2.39841 6.45963C2.39841 7.52557 6.02107 7.01884 6.02107 9.84428Z" fill="#32364E"/>
</svg>
