<svg width="79" height="78" viewBox="0 0 79 78" fill="none" xmlns="http://www.w3.org/2000/svg">
<path fill-rule="evenodd" clip-rule="evenodd" d="M39.9167 0H39.5C39.4385 0 39.3779 0.00369644 39.3184 0.010884C34.4077 0.189406 29.5119 2.56081 26.6845 6.88749C24.2791 6.44452 21.8002 6.54107 19.4285 7.17616C16.6919 7.90894 14.1901 9.33398 12.1639 11.3141C10.1378 13.2941 8.65563 15.7625 7.86014 18.4816C7.16419 20.8603 7.01435 23.3609 7.41588 25.7975C3.29158 28.7057 0.5 33.8301 0.5 39C0.5 44.163 3.28416 49.2807 7.39945 52.1909C6.44838 57.3608 7.91068 62.8605 12.2174 66.7553C15.6957 70.2141 21.1146 71.9969 26.2628 71.4472C29.2028 75.61 34.3859 78 39.5 78C44.6094 78 49.7929 75.6135 52.7347 71.1086C57.8918 72.0433 63.3714 70.5772 67.2552 66.2827C70.7265 62.7939 72.5105 57.7157 71.9409 52.2416C76.1076 49.3024 78.5 44.1167 78.5 39C78.5 33.8906 76.1135 28.7071 71.6086 25.7653C72.5436 20.6068 71.0764 15.1256 66.7792 11.2416C64.829 9.32417 62.4428 7.90804 59.8251 7.11478C57.5219 6.41687 55.1003 6.2195 52.7218 6.53109C49.894 2.54366 45.0057 0.188629 40.098 0.0108503C40.0386 0.00368655 39.978 0 39.9167 0ZM28.7335 9.30161C30.8994 5.33073 35.2467 3.06993 39.7084 3.0016C44.1864 3.07013 48.5558 5.34184 50.7138 8.93841C51.038 9.47874 51.6653 9.75884 52.284 9.63953C54.5028 9.21166 56.7925 9.33053 58.955 9.98586C61.1176 10.6412 63.0881 11.8133 64.6962 13.4008C64.7126 13.417 64.7294 13.4328 64.7466 13.4483C68.4554 16.7862 69.5922 21.6131 68.4615 26.1362C68.2958 26.7989 68.5987 27.4898 69.1984 27.8168C73.231 30.0165 75.5 34.4658 75.5 39C75.5 43.5504 73.2139 48.0224 69.5616 50.2138C69.039 50.5273 68.7581 51.1258 68.8508 51.7281C69.6166 56.7057 68.0784 61.2169 65.106 64.1893C65.0874 64.2079 65.0693 64.227 65.0517 64.2466C61.7138 67.9554 56.8869 69.0922 52.3638 67.9614C51.7011 67.7958 51.0102 68.0987 50.6832 68.6984C48.4835 72.731 44.0342 75 39.5 75C34.9496 75 30.4776 72.7139 28.2862 69.0616C27.9692 68.5332 27.3612 68.2524 26.7534 68.3537C22.1982 69.1129 17.2784 67.5738 14.3107 64.606C14.2921 64.5874 14.273 64.5693 14.2534 64.5517C10.5446 61.2138 9.40776 56.3869 10.5385 51.8638C10.6987 51.2233 10.4212 50.5534 9.85508 50.2138C6.13239 47.9801 3.5 43.464 3.5 39C3.5 34.536 6.13239 30.0198 9.85508 27.7862C10.413 27.4515 10.6915 26.7953 10.5446 26.1615C10.0215 23.9034 10.0886 21.5486 10.7394 19.3239C11.3903 17.0993 12.603 15.0797 14.2607 13.4596C15.9185 11.8396 17.9654 10.6736 20.2044 10.0741C22.4435 9.47452 24.7991 9.46157 27.0446 10.0365C27.7094 10.2067 28.4049 9.90404 28.7335 9.30161ZM53.4773 31.7273C54.0631 31.1416 54.0631 30.1918 53.4773 29.606C52.8915 29.0202 51.9418 29.0202 51.356 29.606L35.75 45.212L28.4773 37.9394C27.8915 37.3536 26.9418 37.3536 26.356 37.9394C25.7702 38.5251 25.7702 39.4749 26.356 40.0607L34.6893 48.394C35.2751 48.9798 36.2249 48.9798 36.8107 48.394L53.4773 31.7273Z" fill="black"/>
</svg>
