<svg width="24" height="16" viewBox="0 0 24 16" fill="none" xmlns="http://www.w3.org/2000/svg">
<path d="M4.54586 6.86646e-05H10.3396C11.1484 6.86646e-05 11.6514 0.725733 11.4627 1.61898L8.76533 14.3675C8.57497 15.2577 7.76522 15.984 6.9559 15.984H1.16269C0.35506 15.984 -0.149091 15.2577 0.0395775 14.3675L2.73812 1.61898C2.92679 0.725733 3.73612 6.86646e-05 4.54586 6.86646e-05Z" fill="#DD2423"/>
<path d="M9.85757 6.86646e-05H16.5203C17.3289 6.86646e-05 16.9643 0.725733 16.774 1.61898L14.077 14.3675C13.8878 15.2577 13.9468 15.984 13.1365 15.984H6.47383C5.66352 15.984 5.16205 15.2577 5.35242 14.3675L8.04927 1.61898C8.24076 0.725733 9.04839 6.86646e-05 9.85757 6.86646e-05Z" fill="#16315E"/>
<path d="M16.256 6.86646e-05H22.0498C22.8596 6.86646e-05 23.3627 0.725733 23.1724 1.61898L20.4755 14.3675C20.2851 15.2577 19.4748 15.984 18.665 15.984H12.8739C12.0636 15.984 11.561 15.2577 11.7508 14.3675L14.4482 1.61898C14.6369 0.725733 15.4457 6.86646e-05 16.256 6.86646e-05Z" fill="#036862"/>
<path d="M6.05899 4.08561C5.46319 4.0923 5.28723 4.08561 5.23103 4.071C5.20942 4.18402 4.80737 6.22561 4.80624 6.22732C4.71967 6.64036 4.65669 6.93479 4.44274 7.12492C4.3213 7.23544 4.17951 7.28877 4.01513 7.28877C3.75091 7.28877 3.59699 7.14435 3.57114 6.87044L3.5662 6.77639C3.5662 6.77639 3.64669 6.22312 3.64669 6.22001C3.64669 6.22001 4.06866 4.35952 4.14421 4.11359C4.14816 4.0996 4.14929 4.0923 4.15028 4.08561C3.32895 4.09354 3.18336 4.08561 3.17333 4.071C3.16782 4.09105 3.14749 4.2064 3.14749 4.2064L2.71663 6.30334L2.67963 6.48118L2.60803 7.06289C2.60803 7.23544 2.63882 7.37629 2.70011 7.49537C2.8964 7.87297 3.45633 7.92955 3.77309 7.92955C4.18121 7.92955 4.56405 7.8341 4.82276 7.65984C5.27184 7.36774 5.38933 6.91117 5.49412 6.50543L5.5427 6.29727C5.5427 6.29727 5.97737 4.36497 6.05122 4.11359C6.05405 4.0996 6.05518 4.0923 6.05899 4.08561ZM7.53793 5.64442C7.43315 5.64442 7.24165 5.67241 7.06965 5.76521C7.00723 5.8005 6.9482 5.84123 6.88592 5.8818L6.94213 5.65841L6.91134 5.62079C6.54658 5.7021 6.46495 5.71298 6.128 5.76521L6.09976 5.78589C6.06064 6.14297 6.0259 6.41144 5.88087 7.11332C5.82565 7.372 5.76832 7.63316 5.71084 7.89122L5.72638 7.92402C6.07166 7.90396 6.17644 7.90396 6.47653 7.9094L6.50082 7.88033C6.53895 7.66534 6.54389 7.61497 6.62834 7.17954C6.66802 6.9731 6.75078 6.51948 6.79159 6.35796C6.86658 6.31972 6.94058 6.2821 7.01118 6.2821C7.17938 6.2821 7.1589 6.44362 7.1524 6.50798C7.1452 6.61602 7.08391 6.9689 7.02107 7.27188L6.97913 7.46745C6.9499 7.61186 6.91784 7.75224 6.88861 7.89541L6.90132 7.92402C7.24165 7.90396 7.34545 7.90396 7.63608 7.9094L7.67025 7.88033C7.72278 7.54455 7.73818 7.4547 7.83138 6.96579L7.87827 6.74116C7.96935 6.30153 8.01511 6.07861 7.94619 5.89704C7.87332 5.69355 7.6985 5.64442 7.53793 5.64442ZM9.19007 6.10471C9.00917 6.14295 8.8938 6.16845 8.77913 6.18493C8.66545 6.20498 8.55459 6.22317 8.37976 6.24991L8.36592 6.26374L8.35321 6.27478C8.335 6.41811 8.32229 6.54201 8.29814 6.68767C8.27766 6.8383 8.24617 7.00946 8.19491 7.25539C8.15522 7.44365 8.13475 7.50925 8.11215 7.57547C8.09012 7.6417 8.06583 7.70605 8.02121 7.8912L8.03166 7.9083L8.04041 7.924C8.2038 7.91545 8.31071 7.90939 8.42057 7.9083C8.5303 7.90395 8.64398 7.9083 8.81994 7.90939L8.83533 7.89555L8.85186 7.88032C8.87728 7.71336 8.88109 7.66843 8.89662 7.58698C8.91202 7.49961 8.93856 7.37867 9.00367 7.05563C9.03445 6.90391 9.06877 6.75265 9.10068 6.59781C9.13387 6.4436 9.16861 6.29172 9.20165 6.14L9.19671 6.12165L9.19007 6.10471ZM9.19393 5.4841C9.02955 5.3773 8.74104 5.41119 8.54687 5.55872C8.35326 5.70329 8.33123 5.90849 8.49504 6.01669C8.65659 6.12054 8.94623 6.0896 9.13871 5.94083C9.3319 5.79315 9.35605 5.58981 9.19393 5.4841ZM10.188 7.95747C10.5206 7.95747 10.8615 7.85658 11.1181 7.55717C11.3155 7.31435 11.406 6.95308 11.4374 6.80431C11.5395 6.3112 11.46 6.08097 11.3602 5.94075C11.2085 5.727 10.9405 5.65845 10.6624 5.65845C10.4952 5.65845 10.097 5.67663 9.78585 5.99236C9.56244 6.2201 9.45921 6.52915 9.39693 6.82545C9.33409 7.12734 9.26179 7.67081 9.7158 7.87306C9.85589 7.93928 10.0578 7.95747 10.188 7.95747ZM10.1621 6.84799C10.2387 6.47459 10.3293 6.16119 10.5603 6.16119C10.7413 6.16119 10.7545 6.39437 10.674 6.76902C10.6596 6.85219 10.5935 7.16139 10.5041 7.29306C10.4417 7.39022 10.3678 7.44913 10.2862 7.44913C10.2619 7.44913 10.1174 7.44913 10.1152 7.213C10.114 7.09641 10.1356 6.97733 10.1621 6.84799ZM12.2688 7.90945L12.2947 7.88038C12.3316 7.66539 12.3377 7.61486 12.4193 7.17959C12.4601 6.97314 12.5446 6.51953 12.5842 6.35801C12.6594 6.31961 12.7321 6.28199 12.805 6.28199C12.972 6.28199 12.9517 6.44351 12.945 6.50787C12.939 6.61606 12.8777 6.96879 12.8137 7.27177L12.774 7.46734C12.7437 7.61191 12.7106 7.75213 12.6814 7.89546L12.6941 7.92406C13.0356 7.90401 13.1354 7.90401 13.4277 7.90945L13.463 7.88038C13.5143 7.54444 13.5281 7.45459 13.6242 6.96584L13.6699 6.74105C13.7614 6.30142 13.8078 6.07866 13.74 5.89708C13.665 5.69359 13.489 5.64447 13.3307 5.64447C13.2258 5.64447 13.0333 5.6723 12.8623 5.76526C12.8011 5.80055 12.7399 5.84112 12.6797 5.88185L12.7321 5.65846L12.704 5.62069C12.3394 5.70214 12.256 5.71303 11.9195 5.76526L11.8937 5.78593C11.8529 6.14301 11.8197 6.41133 11.6746 7.11337C11.6194 7.37204 11.5621 7.63321 11.5048 7.89126L11.5202 7.92406C11.866 7.90401 11.9692 7.90401 12.2688 7.90945ZM14.7776 7.92399C14.799 7.80864 14.9266 7.12495 14.9277 7.12495C14.9277 7.12495 15.0363 6.62329 15.0429 6.6051C15.0429 6.6051 15.0771 6.55287 15.1113 6.5322H15.1615C15.6359 6.5322 16.1715 6.5322 16.5914 6.19222C16.8771 5.95903 17.0724 5.6147 17.1595 5.19622C17.1821 5.09361 17.1988 4.97158 17.1988 4.84955C17.1988 4.68928 17.1695 4.53071 17.0851 4.40681C16.871 4.07709 16.4447 4.07103 15.9525 4.06854C15.951 4.06854 15.7099 4.07103 15.7099 4.07103C15.0799 4.07958 14.8273 4.07709 14.7235 4.0631C14.7147 4.11363 14.6982 4.20348 14.6982 4.20348C14.6982 4.20348 14.4725 5.35478 14.4725 5.35664C14.4725 5.35664 13.9325 7.80444 13.9071 7.91979C14.4571 7.91248 14.6827 7.91248 14.7776 7.92399ZM15.1957 5.87882C15.1957 5.87882 15.4356 4.72985 15.4345 4.7342L15.4423 4.67528L15.4457 4.63036L15.5416 4.64124C15.5416 4.64124 16.0364 4.68803 16.048 4.68928C16.2433 4.77244 16.3238 4.98682 16.2676 5.26664C16.2163 5.52236 16.0656 5.73735 15.872 5.8412C15.7126 5.92919 15.5173 5.93649 15.316 5.93649H15.1858L15.1957 5.87882ZM16.6896 6.86927C16.6262 7.16681 16.5533 7.71028 17.0051 7.90398C17.1491 7.97145 17.2782 7.9915 17.4094 7.98419C17.5479 7.97596 17.6763 7.89947 17.7952 7.78941C17.7845 7.83465 17.7737 7.87988 17.763 7.92528L17.7835 7.95435C18.1084 7.93927 18.2092 7.93927 18.5613 7.94222L18.5932 7.91548C18.6446 7.58281 18.6931 7.25977 18.8266 6.62334C18.8917 6.31849 18.9567 6.0166 19.0235 5.71299L19.0131 5.67957C18.6496 5.75372 18.5524 5.76958 18.2027 5.82414L18.1762 5.84793C18.1727 5.87887 18.169 5.90856 18.1656 5.93825C18.1112 5.84156 18.0324 5.75901 17.9108 5.70755C17.7554 5.64024 17.3902 5.72699 17.0762 6.04163C16.8557 6.26626 16.7497 6.57406 16.6896 6.86927ZM17.453 6.88746C17.5308 6.52074 17.6202 6.21045 17.8518 6.21045C17.9983 6.21045 18.0754 6.35922 18.0597 6.61292C18.0473 6.67619 18.0338 6.74288 18.0179 6.81828C17.9947 6.92725 17.9696 7.0353 17.9452 7.14349C17.9203 7.21749 17.8914 7.28729 17.8596 7.33377C17.8 7.42673 17.6582 7.48441 17.5766 7.48441C17.5534 7.48441 17.4105 7.48441 17.4056 7.25247C17.4044 7.13696 17.426 7.01804 17.453 6.88746ZM21.4397 5.6766L21.4116 5.64131C21.0519 5.72153 20.9868 5.73428 20.6563 5.7834L20.6321 5.81014C20.6309 5.81449 20.6299 5.82118 20.6282 5.82724L20.6271 5.82118C20.3811 6.44595 20.3883 6.31117 20.1881 6.80303C20.1869 6.78064 20.1869 6.76665 20.1858 6.74287L20.1357 5.6766L20.1042 5.64131C19.7274 5.72153 19.7185 5.73428 19.3706 5.7834L19.3434 5.81014C19.3396 5.82289 19.3396 5.83688 19.3374 5.85211L19.3396 5.85755C19.3831 6.10224 19.3727 6.04767 19.4163 6.43382C19.4366 6.62332 19.4638 6.81391 19.4841 7.00108C19.5184 7.31432 19.5376 7.46853 19.5796 7.94656C19.3446 8.37344 19.2889 8.53496 19.0627 8.9096L19.0642 8.91333L18.905 9.19067C18.8867 9.21989 18.8702 9.23994 18.8471 9.2485C18.8216 9.26233 18.7886 9.26482 18.7427 9.26482H18.6544L18.5232 9.74517L18.9733 9.75372C19.2375 9.75248 19.4036 9.61646 19.493 9.43364L19.776 8.89981H19.7715L19.8013 8.86219C19.9916 8.41106 21.4397 5.6766 21.4397 5.6766ZM16.6896 11.9854H16.4986L17.2053 9.41242H17.4397L17.5141 9.14737L17.5213 9.44211C17.5126 9.62431 17.6428 9.78583 17.9848 9.75909H18.3804L18.5165 9.26365H18.3677C18.2821 9.26365 18.2424 9.23987 18.2474 9.18888L18.2402 8.88901H17.5077V8.89056C17.2708 8.896 16.5636 8.91559 16.4204 8.95756C16.2471 9.00668 16.0645 9.15126 16.0645 9.15126L16.1363 8.8859H15.4511L15.3083 9.41242L14.5922 12.0247H14.4532L14.317 12.5166H15.6817L15.6359 12.6806H16.3084L16.353 12.5166H16.5417L16.6896 11.9854ZM16.1296 9.93522C16.0199 9.96864 15.8157 10.07 15.8157 10.07L15.9973 9.41242H16.5417L16.4104 9.89154C16.4104 9.89154 16.2422 9.90242 16.1296 9.93522ZM16.1401 10.8746C16.1401 10.8746 15.9691 10.8983 15.8565 10.9262C15.7457 10.9632 15.5378 11.0798 15.5378 11.0798L15.7253 10.3955H16.2726L16.1401 10.8746ZM15.8351 11.9914H15.289L15.4473 11.4139H15.9917L15.8351 11.9914ZM17.1502 10.3955H17.9373L17.8242 10.7988H17.0266L16.9069 11.2396H17.6048L17.0763 12.0587C17.0393 12.1189 17.0061 12.1402 16.9693 12.1571C16.9323 12.1778 16.8837 12.2021 16.8275 12.2021H16.6339L16.5008 12.6849H17.0073C17.2705 12.6849 17.426 12.5531 17.5408 12.3801L17.9031 11.8341L17.981 12.3885C17.9975 12.4923 18.0653 12.5531 18.1112 12.5767C18.1619 12.6047 18.2143 12.6527 18.2883 12.6599C18.3676 12.6636 18.425 12.6666 18.4631 12.6666H18.7119L18.8613 12.1262H18.7632C18.7068 12.1262 18.6098 12.1158 18.5933 12.0964C18.5768 12.0727 18.5768 12.0363 18.5679 11.981L18.4889 11.4254H18.1657L18.3075 11.2396H19.1035L19.2259 10.7988H18.4889L18.6037 10.3955H19.3385L19.4748 9.89822H17.2842L17.1502 10.3955ZM10.5019 12.1037L10.6856 11.4309H11.4407L11.5786 10.9305H10.8228L10.9382 10.5164H11.6768L11.8136 10.0318H9.96565L9.83163 10.5164H10.2515L10.1395 10.9305H9.71851L9.57899 11.4394H9.99869L9.75382 12.3296C9.72077 12.4474 9.76935 12.4923 9.80014 12.5471C9.83163 12.6004 9.86355 12.6357 9.93528 12.6557C10.0093 12.6739 10.06 12.6848 10.1289 12.6848H10.9802L11.1318 12.1304L10.7545 12.1875C10.6816 12.1875 10.4798 12.1779 10.5019 12.1037ZM10.5885 8.88286L10.3971 9.26357C10.3562 9.34674 10.3193 9.39835 10.2861 9.42214C10.2569 9.44219 10.199 9.45059 10.1151 9.45059H10.0153L9.88181 9.93763H10.2134C10.3728 9.93763 10.4953 9.87327 10.5537 9.84109C10.6166 9.80409 10.6331 9.82523 10.6817 9.77362L10.7937 9.66683H11.8291L11.9665 9.15973H11.2086L11.3409 8.88286H10.5885ZM12.1171 12.1135C12.0994 12.0855 12.1121 12.0362 12.1391 11.9336L12.4221 10.9025H13.4288C13.5756 10.9002 13.6815 10.8983 13.7504 10.8929C13.8244 10.8843 13.9049 10.8552 13.9926 10.803C14.0831 10.7483 14.1294 10.6906 14.1686 10.6244C14.2122 10.5583 14.2822 10.4137 14.3424 10.1908L14.6981 8.88593L13.6534 8.89261C13.6534 8.89261 13.3317 8.94484 13.19 9.00252C13.0471 9.06688 12.8429 9.24658 12.8429 9.24658L12.9373 8.88888H12.2919L11.3884 12.1875C11.3563 12.3156 11.3349 12.4085 11.3299 12.4643C11.3282 12.5245 11.3988 12.584 11.4446 12.629C11.4987 12.6739 11.5786 12.6666 11.6553 12.6739C11.7359 12.6806 11.8506 12.6848 12.0089 12.6848H12.5049L12.6571 12.1189L12.2131 12.1651C12.1656 12.1651 12.1313 12.1371 12.1171 12.1135ZM12.6047 10.2061H13.6621L13.5949 10.438C13.5855 10.4434 13.5629 10.4265 13.4553 10.4405H12.5396L12.6047 10.2061ZM12.8165 9.42815H13.8829L13.8062 9.70751C13.8062 9.70751 13.3036 9.70207 13.2231 9.71839C12.8689 9.78586 12.662 9.99417 12.662 9.99417L12.8165 9.42815ZM13.6186 11.2147C13.6098 11.2494 13.596 11.2705 13.5766 11.2864C13.5552 11.3016 13.5204 11.307 13.4686 11.307H13.3179L13.3268 11.0246H12.7001L12.6747 12.4055C12.6737 12.5051 12.6825 12.5628 12.7487 12.609C12.8149 12.6666 13.019 12.6739 13.2936 12.6739H13.6864L13.8282 12.1571L13.4863 12.1777L13.3726 12.185C13.3571 12.1777 13.3422 12.1711 13.3257 12.1529C13.3113 12.1372 13.287 12.1468 13.291 12.0472L13.2936 11.6932L13.6522 11.6769C13.8458 11.6769 13.9286 11.6075 13.9992 11.5415C14.0665 11.4782 14.0886 11.4054 14.114 11.307L14.1741 10.9936H13.6814L13.6186 11.2147Z" fill="#FEFEFE"/>
</svg>
