<svg width="12" height="18" viewBox="0 0 12 18" fill="none" xmlns="http://www.w3.org/2000/svg">
<path fill-rule="evenodd" clip-rule="evenodd" d="M4.60253 0.000284746H6.66166C7.25607 -0.00859712 7.83502 0.19055 8.29826 0.563462C8.76409 0.938453 9.08325 1.46527 9.19994 2.05177L9.2001 2.05257L9.76592 4.88171C10.7143 5.89196 11.2952 7.25128 11.2952 8.74628C11.2952 10.2023 10.7442 11.5297 9.83926 12.5312L9.26215 15.4167L9.26199 15.4176C9.1453 16.0041 8.82614 16.5309 8.36032 16.9059C7.89707 17.2788 7.31812 17.4779 6.72372 17.469H4.6336C4.0392 17.4779 3.46025 17.2788 2.997 16.9059C2.53116 16.5309 2.212 16.004 2.09532 15.4175L2.09517 15.4167L1.53526 12.6172C0.583335 11.6063 0 10.2444 0 8.74628C0 7.25795 0.575717 5.90409 1.5166 4.89525L2.06298 2.05827L2.06408 2.05257L2.0641 2.05257C2.18065 1.46575 2.49989 0.938625 2.96593 0.563462C3.42918 0.19055 4.00813 -0.00859712 4.60253 0.000284746ZM3.17445 11.4274C3.15441 11.4068 3.13351 11.3871 3.11183 11.3683C2.42624 10.7051 2 9.77547 2 8.74628C2 7.72632 2.41864 6.80413 3.09346 6.14218C3.11943 6.11983 3.14429 6.09613 3.16792 6.07116C3.81869 5.46765 4.69005 5.09868 5.6476 5.09868C6.58423 5.09868 7.4384 5.45171 8.08432 6.03195C8.13005 6.08569 8.18119 6.13426 8.23673 6.17697C8.891 6.83626 9.29519 7.74406 9.29519 8.74628C9.29519 10.7608 7.66211 12.3939 5.6476 12.3939C4.69325 12.3939 3.82451 12.0274 3.17445 11.4274ZM3.87333 14.1095L4.05659 15.0258L4.05685 15.0271C4.08196 15.1535 4.15073 15.2671 4.25114 15.3479C4.35154 15.4287 4.47717 15.4717 4.60604 15.4692L4.6252 15.469H6.73211L6.75127 15.4692C6.88015 15.4717 7.00578 15.4287 7.10618 15.3479C7.20659 15.2671 7.27536 15.1535 7.30047 15.0271L7.30073 15.0258L7.48848 14.0871C6.91147 14.2859 6.29214 14.3939 5.6476 14.3939C5.02779 14.3939 4.4313 14.294 3.87333 14.1095ZM7.23868 2.44351L7.42691 3.38469C6.8675 3.19913 6.26928 3.09868 5.6476 3.09868C5.0164 3.09868 4.40939 3.20223 3.84262 3.39326L4.0262 2.44007C4.05166 2.31451 4.12023 2.20176 4.22007 2.12139C4.32047 2.04057 4.4461 1.99763 4.57497 2.0001L4.59413 2.00028H6.67006L6.68922 2.0001C6.81809 1.99763 6.94372 2.04057 7.04413 2.12139C7.14453 2.20222 7.21331 2.31578 7.23842 2.44221L7.23868 2.44351ZM6.64755 7.19708C6.64755 6.64479 6.19983 6.19708 5.64755 6.19708C5.09526 6.19708 4.64755 6.64479 4.64755 7.19708V8.74628C4.64755 9.01149 4.75291 9.26585 4.94044 9.45339L5.71504 10.228C6.10557 10.6185 6.73873 10.6185 7.12925 10.228C7.51978 9.83746 7.51978 9.2043 7.12925 8.81377L6.64755 8.33206V7.19708Z" fill="#FF5C4D"/>
</svg>
